# xmcd
#
# Track frame offsets:
#	150
#	13374
#	24802
#	32982
#	46149
#	60359
#	74675
#	89140
#	106073
#	119678
#	130284
#	141319
#	157219
#	173993
#	189647
#	200991
#	212166
#	227351
#	237866
#	251924
#	263428
#	279574
#
# Disc length: 3900 seconds
#
# Revision: 1
# Processed by: cddbd v1.5.2PL0 Copyright (c) Steve Scherf et al.
# Submitted via: audiograbber 1.83.01
#
DISCID=500f3a16
DTITLE=Kemp'ner Musikanten België 20 jaar - Wenn wir uns Wiederseh'n
DYEAR=1998
DGENRE=Folk
TTITLE0=Graslitzer Musikanten
TTITLE1=Rakvicka
TTITLE2=O Nasej Zemi
TTITLE3=Kemp'ner polka
TTITLE4=Dosla K Nám Z Daleka
TTITLE5=Schorsi Polka
TTITLE6=Na Zdravi
TTITLE7=Willst du mich kennenlernen
TTITLE8=Rauschende Birken
TTITLE9=Neohlédaj sa Sohaj
TTITLE10=Freundschaftsnelodie
TTITLE11=OHO-Polka
TTITLE12=Stille Liebe
TTITLE13=Prerovanka
TTITLE14=Ohne Grenzen
TTITLE15=Früling unt Herbst
TTITLE16=Pro Milocankú
TTITLE17=Liechtensteiner Polka
TTITLE18=U Tichých Topolú
TTITLE19=Löffelmacher Polka
TTITLE20=Moravské Polecko
TTITLE21=Wenn wir uns Wiederseh'n
EXTD=
EXTT0=
EXTT1=
EXTT2=
EXTT3=
EXTT4=
EXTT5=
EXTT6=
EXTT7=
EXTT8=
EXTT9=
EXTT10=
EXTT11=
EXTT12=
EXTT13=
EXTT14=
EXTT15=
EXTT16=
EXTT17=
EXTT18=
EXTT19=
EXTT20=
EXTT21=
PLAYORDER=
